<svg version="1.2" xmlns="http://www.w3.org/2000/svg" viewBox="0 0 890 896" width="890" height="896">
	<title>New Project</title>
	<style>
		.s0 { fill: #ffffff } 
	</style>
	<path id="Layer 3" fill-rule="evenodd" class="s0" d="m111.7 55.9c0-30.9-24.9-55.9-55.8-55.9-30.9 0-55.9 25-55.9 55.9v55.8 530.7 195.5c0 30.9 25 55.8 55.9 55.8 30.9 0 55.8-24.9 55.8-55.8v-223.5l112.3-28.1c71.7-18 147.6-9.6 213.8 23.4 77.1 38.6 166.7 43.3 247.3 12.9l60.6-22.7c21.8-8.2 36.3-28.9 36.3-52.3v-432.2c0-40.2-42.2-66.4-78.2-48.4l-16.8 8.4c-80.8 40.5-175.9 40.5-256.7 0-61.3-30.7-131.6-38.4-198.1-21.8l-120.5 30.2z"/>
</svg>