<svg version="1.2" xmlns="http://www.w3.org/2000/svg" viewBox="0 0 800 800" width="800" height="800">
	<title>New Project</title>
	<style>
		.s0 { fill: #ffffff } 
	</style>
	<path id="Layer 3" fill-rule="evenodd" class="s0" d="m794.7 260.4c5.3 13.6 0.9 28.7-10.5 38.4l-71.2 61.6c1.8 13 2.8 26.2 2.8 39.7 0 13.4-1 26.7-2.8 39.7l71.2 61.5c11.4 9.7 15.8 24.9 10.5 38.5-7.2 18.6-15.9 36.4-26 53.6l-7.7 12.7c-10.8 17.1-23 33.4-36.3 48.7-9.8 11.3-25.9 15-40.3 10.6l-91.7-27.6c-22 16.1-46.4 29.5-72.4 39.7l-20.5 89.2c-3.3 14.2-14.8 25.5-30 27.8-22.7 3.6-46 5.5-69.9 5.5-23.8 0-47.2-1.9-69.9-5.5-15.1-2.3-26.6-13.6-29.9-27.8l-20.6-89.2c-26-10.2-50.3-23.6-72.4-39.7l-91.5 27.8c-14.4 4.4-30.5 0.5-40.3-10.6-13.3-15.3-25.5-31.6-36.3-48.8l-7.7-12.6c-10.1-17.2-18.8-35.1-26-53.7-5.3-13.5-0.9-28.7 10.5-38.4l71.2-61.6c-1.8-13.1-2.8-26.4-2.8-39.8 0-13.5 1-26.7 2.8-39.7l-71.2-61.6c-11.4-9.7-15.8-24.8-10.5-38.4 7.2-18.6 15.9-36.5 26-53.6l7.7-12.7c10.8-17.2 23-33.4 36.3-48.8 9.8-11.2 25.9-15 40.3-10.6l91.7 27.7c22-16.1 46.4-29.6 72.4-39.7l20.5-89.3c3.3-14.2 14.8-25.4 30-27.8 22.7-3.7 46-5.6 69.9-5.6 23.8 0 47.2 1.9 69.9 5.5 15.1 2.3 26.6 13.6 29.9 27.8l20.6 89.2c26 10.2 50.3 23.6 72.4 39.7l91.6-27.6c14.5-4.4 30.6-0.5 40.3 10.6 13.3 15.3 25.5 31.6 36.4 48.7l7.7 12.7c10 17.2 18.8 35 25.8 53.8zm-394.6 264.7c34.9 0 68.4-13.2 93-36.6 24.7-23.5 38.6-55.3 38.6-88.4 0-33.2-13.9-65-38.6-88.4-24.6-23.5-58.1-36.6-93-36.6-34.9 0-68.4 13.1-93.1 36.6-24.7 23.4-38.5 55.2-38.5 88.4 0 33.1 13.8 64.9 38.5 88.4 24.7 23.4 58.2 36.6 93.1 36.6z"/>
</svg>