<svg version="1.2" xmlns="http://www.w3.org/2000/svg" viewBox="0 0 800 800" width="800" height="800">
	<title>New Project</title>
	<style>
		.s0 { fill: #ffffff } 
	</style>
	<path id="Layer 1" fill-rule="evenodd" class="s0" d="m798.6 399.2c0 28.1-20.8 50.2-44.4 50.2h-44.4l1 250.3c0 4.2-0.3 8.4-0.7 12.6v25.2c0 34.5-24.8 62.5-55.5 62.5h-22.1c-1.6 0-3.1 0-4.6-0.2-2 0.2-3.9 0.2-5.8 0.2h-45.1-33.3c-30.7 0-55.5-28-55.5-62.5v-37.5-100c0-27.7-19.8-50-44.4-50h-88.7c-24.6 0-44.4 22.3-44.4 50v100 37.5c0 34.5-24.8 62.5-55.5 62.5h-33.3-44.2c-2.1 0-4.2-0.2-6.3-0.3-1.6 0.1-3.3 0.3-5 0.3h-22.2c-30.6 0-55.4-28-55.4-62.5v-175c0-1.4 0-3 0.1-4.4v-108.7h-44.5c-25 0-44.4-21.9-44.4-50.2 0-14 4.2-26.5 13.9-37.5l355.6-349.2c9.7-10.9 20.8-12.5 30.5-12.5 9.7 0 20.8 3.1 29.1 10.9l354.3 350.8c11.1 11 16.6 23.5 15.2 37.5z"/>
</svg>