<svg version="1.2" xmlns="http://www.w3.org/2000/svg" viewBox="0 0 800 800" width="800" height="800">
	<title>New Project</title>
	<style>
		.s0 { fill: #ffffff } 
	</style>
	<path id="Layer 2" fill-rule="evenodd" class="s0" d="m291.1 85c41.9 0 82 16.6 111.6 46.2 29.6 29.5 46.2 69.6 46.2 111.4 0 41.9-16.6 82-46.2 111.5-29.6 29.6-69.7 46.2-111.6 46.2-41.8 0-81.9-16.6-111.5-46.2-29.6-29.5-46.3-69.6-46.3-111.5 0-41.8 16.7-81.9 46.3-111.4 29.6-29.6 69.7-46.2 111.5-46.2zm-56.3 374.4h112.7c14.5 0 28.8 1.5 42.5 4.1-2.6 22.8 9.1 43.8 26.9 55.2-20.5 13-32.9 38.9-24.7 65.6 5 15.9 11.6 31.4 20.3 46.3 8.6 14.9 18.7 28.5 30 40.7 19.4 20.8 48.9 22.6 70.6 10.7v1.1c0 11.3 3.3 22.8 9.7 32.4h-471.2c-20.2 0.1-36.6-16.3-36.6-36.5 0-121.3 98.4-219.6 219.8-219.6zm317.7-105.7c0-8.6 5.6-16.3 13.9-18.2 13-2.9 26.5-4.5 40.3-4.5 13.9 0 27.4 1.6 40.4 4.5 8.3 1.9 13.9 9.6 13.9 18.2v37.7c9.7 4.2 19 9.5 27.5 15.8l30.7-17.6c7.5-4.3 16.9-3.3 22.8 2.9 9.4 10 17.6 21.2 24.8 33.5 7.1 12.4 12.7 25.2 16.6 38.2 2.6 8.3-1.3 16.9-8.9 21.2l-30.8 17.7c0.5 5 0.9 10 0.9 15.2 0 5.2-0.3 10.1-0.9 15.1l30.8 17.8c7.6 4.3 11.4 12.9 8.9 21.2-4.1 13-9.6 25.8-16.6 38.1-7.1 12.4-15.4 23.6-24.8 33.5-5.9 6.3-15.4 7.3-22.8 3l-30.7-17.6c-8.5 6.3-17.6 11.6-27.5 15.7v37.7c0 8.7-5.6 16.4-13.9 18.3-13 2.9-26.5 4.5-40.4 4.5-13.8 0-27.3-1.6-40.3-4.5-8.3-1.9-13.9-9.6-13.9-18.3v-37.7c-9.9-4.1-19.2-9.4-27.7-15.8l-30.5 17.6c-7.5 4.3-16.9 3.3-22.8-3-9.4-10-17.6-21.2-24.8-33.5-7.1-12.3-12.7-25.1-16.6-38.2-2.6-8.2 1.3-16.8 8.9-21.2l30.5-17.6c-0.5-5-0.8-10.1-0.8-15.2 0-5.2 0.2-10.3 0.8-15.3l-30.7-17.6c-7.5-4.3-11.3-13-8.8-21.2 4-13.1 9.5-25.9 16.6-38.2 7.2-12.3 15.4-23.5 24.8-33.5 5.9-6.3 15.3-7.3 22.8-2.9l30.6 17.6c8.5-6.3 17.8-11.6 27.7-15.9zm113.5 164.4c0.8-16.2-5.1-31.9-16.3-43.6-11.2-11.7-26.7-18.3-42.9-18.3-16.2 0-31.7 6.6-42.9 18.3-11.2 11.7-17.1 27.4-16.3 43.6-0.8 16.2 5.1 31.9 16.3 43.6 11.2 11.7 26.7 18.3 42.9 18.3 16.2 0 31.7-6.6 42.9-18.3 11.2-11.7 17.1-27.4 16.3-43.6z"/>
</svg>