<svg version="1.2" xmlns="http://www.w3.org/2000/svg" viewBox="0 0 890 896" width="890" height="896">
	<title>New Project</title>
	<style>
		.s0 { fill: #ffffff } 
	</style>
	<path id="Layer 2" fill-rule="evenodd" class="s0" d="m517.1 543.4l-315.6 317.8c-22.1 22.2-52.2 34.8-83.5 34.8-65.2 0-118-53.2-118-118.8 0-31.5 12.5-61.8 34.6-84l315.7-317.8c-10.6-29.8-16.5-62-16.5-95.4 0-154.7 124.4-280 278.1-280 26.6 0 52.3 3.8 76.8 10.8 18.6 5.5 23 28.7 9.2 42.6l-133.5 134.4c-5.2 5.2-8.2 12.4-8.2 19.7v100.5c0 15.4 12.6 28 27.9 28h99.7c7.3 0 14.5-3 19.7-8.2l133.5-134.4c13.7-13.9 36.8-9.6 42.2 9.2 7 24.7 10.8 50.6 10.8 77.4 0 154.7-124.5 280-278.1 280-33.2 0-65.2-5.8-94.8-16.6zm-407.5 182.9c-7.9 7.9-12.3 18.6-12.3 29.7 0 11.1 4.4 21.8 12.3 29.7 7.8 7.9 18.4 12.3 29.5 12.3 11 0 21.6-4.4 29.5-12.3 7.8-7.9 12.2-18.6 12.2-29.7 0-11.1-4.4-21.8-12.2-29.7-7.9-7.9-18.5-12.3-29.5-12.3-11.1 0-21.7 4.4-29.5 12.3z"/>
</svg>